<?xml version="1.0" encoding="utf-8"?>
<!-- Generator: Adobe Illustrator 18.0.0, SVG Export Plug-In . SVG Version: 6.00 Build 0)  -->
<!DOCTYPE svg PUBLIC "-//W3C//DTD SVG 1.1//EN" "http://www.w3.org/Graphics/SVG/1.1/DTD/svg11.dtd">
<svg version="1.1" id="Слой_2" xmlns="http://www.w3.org/2000/svg" xmlns:xlink="http://www.w3.org/1999/xlink" x="0px" y="0px"
	 viewBox="0 286 1200 282" enable-background="new 0 286 1200 282" xml:space="preserve">
<path fill="#000000"    d="M1193.5,465.7c0,0-30.7-2.5-62.4-6.5
	c-10.6-1.3-25.7-3.1-42.2-4.8l-6.6-13c0,0,0.8,8,0,9.1s-11.1-0.3-15.1-1.3c-2.1-0.5-4.6,0.9-6.4,2.4c-24.7-2.3-49.1-4.2-64.5-4.4
	c-21.7-0.3-161.7-3.3-250.9-5.1l-16.9-15l-28.7-5.2l0-0.6l-2-3.3l2-4.8l6.5-15.3h-2l-8.5,17.4l-3.3,2.3l-1.3,4.3l-22.4,2.5l-0.1-0.7
	l-10.6,10.1l-10.6-27.5l17.3-43.8h-2.5l-12.5,24.9l-32.3-6.1h-6.8h-2.5h-17.4l-0.1-0.5l-6.4-6.5l-2,0.1v-79.8h-3.3v79.9l-32,1v-80.9
	h-3.3v81l-22.7,0.7c0,0,3.7,3.2,4.2,5.5c0.5,2.3-1.5,3.4-1.5,3.4s1.7,2,2.4,7.5c0.7,5.5-3.4,10.9-3.4,10.9s2.3,4.2,3.2,7.5
	c0.8,3.4-1.7,6.2-1.7,6.2s1.5,1.3,1.7,4s-1.7,7.5-1.7,7.5l-12.7,0.3c-0.1,0-9.3-0.1-21.9-0.3V428v-3v-5.8c0,0-8,0-15.1-1.3
	c-7-1.3-9.6-4.8-9.6-4.8l-3.5,1.3l-1,9.2h-45.8v1.4l9.6,0.3v2.9c-5.4-0.1-9-0.1-9.6-0.1c-2.2,0-8.1,5.4-11.7,8.9
	c-81.7-1.6-184.8-3.6-201.6-4.4c-11.7-0.5-43-1.9-75.9-3.3v-6l-34.6-20.1l1.1-3l-12.8-1L5,427l4.3,15.6c0,0,5,13.1,23.6,36.7
	s67.9,36.5,82,40.2c14.1,3.8,185.3,32.4,208,35.7c22.6,3.3,624.6,6.8,626.7,5.5c2-1.3,18.1-23.4,18.1-23.4l62.1-13.6l38.9-0.6
	c7,4,22.8,12.3,39,16l0,0.2l4.8,0.8h0c0,0,0,0,0,0l6.5,1l0-0.4c13.7,0.5,23.7-4.7,28.4-7.9c1.1,0.5,2.9,1.1,6.1,1.2
	c5.8,0.3,6.3-5,6.3-5h7.5l1-7l10.1-2.5l0.5-30.7c0,0,11.1-6,14.6-8C1197,478.8,1193.5,465.7,1193.5,465.7z M80.3,402.9l10.2,24.7
	c-8.3-0.4-16.2-0.7-23.5-1l-4.3-16.3L80.3,402.9z M27.9,425l30.6-12.9l4,14.4C42.1,425.6,27.9,425,27.9,425z M93.8,427.8l-10.4-24.6
	l5.3,0.6l33.7,21.1v4.1C112.9,428.7,103.2,428.2,93.8,427.8z M487.6,428v0.8c-4.2-0.1-8.7-0.1-13.3-0.2V428H487.6z M460.4,430.1
	c4.1,0.1,8.2,0.2,12.3,0.2v7.8c-3.9-0.1-8-0.1-12.3-0.2V430.1z M458.8,437.9c-9.8-0.2-20.8-0.4-32.6-0.6v-7.5
	c8.3-0.1,20.1,0,32.6,0.2V437.9z M474.3,430.4c4.6,0.1,9.1,0.2,13.3,0.3v7.8c-3.9-0.1-8.4-0.2-13.3-0.2V430.4z M461.7,426.2l1.5,1.8
	h9.6v0.7c-4.1,0-8.2-0.1-12.3-0.1v-2.3L461.7,426.2z M426.2,425.3l32.6,0.9v2.3c-12.3-0.1-24.2-0.3-32.6-0.4V425.3z M414.9,430.5
	c0.7-0.3,4.2-0.5,9.6-0.6v7.4c-5.7-0.1-11.5-0.2-17.5-0.3C409.2,434.7,412.4,431.7,414.9,430.5z M489.9,438.5v-7.7
	c6.4,0.2,12.2,0.3,16.7,0.4l-0.4,7.6C506.2,438.8,500.2,438.7,489.9,438.5z M617.6,383.5l11,2.4l-5.7,19.6l-13.8-0.6l1.5-21
	L617.6,383.5z M591.5,384.6l16.7-0.7l-1,20.9l-12.1-0.5L591.5,384.6z M625.6,405.6l5.6-19.2l17.3,3.7l-8.1,16.1L625.6,405.6z
	 M742.3,441.9c-4.8-0.1-9.4-0.2-13.8-0.3v-11.5C730.8,432.2,738.1,438.3,742.3,441.9z M727,429.4v12.2c-10.3-0.2-19.6-0.4-27.6-0.6
	l0.4-16.6L727,429.4z M669.1,426.9l21.5-2.5l-1.3,5.7l3.3-2v12.9c-13.7-0.3-21.8-0.5-21.8-0.5L669.1,426.9z M1075.4,523.2l25.1-0.4
	l3.8,7.5l4.8,1.5l-0.9,5.2C1093.2,532.6,1081.1,526.4,1075.4,523.2z M1119,539.4l-0.2-7.1l16.6-7.5l5.5,3.7
	C1138.2,533.1,1131.9,540.6,1119,539.4z"/>
</svg>
