<?xml version="1.0" encoding="utf-8"?>
<!-- Generator: Adobe Illustrator 18.0.0, SVG Export Plug-In . SVG Version: 6.00 Build 0)  -->
<!DOCTYPE svg PUBLIC "-//W3C//DTD SVG 1.1//EN" "http://www.w3.org/Graphics/SVG/1.1/DTD/svg11.dtd">
<svg version="1.1" id="Слой_1" xmlns="http://www.w3.org/2000/svg" xmlns:xlink="http://www.w3.org/1999/xlink" x="0px" y="0px"
	 viewBox="0 214 1024 372" enable-background="new 0 214 1024 372" xml:space="preserve">
<path fill="#000000"      d="
	M695.8,374.2c-1-0.9-2.3-1.1-3.7-1.1h-0.5h-3.3c2-2.1,3.3-4.7,3.3-7.8c0-6-4.9-10.9-10.9-10.9h-31.2c-6,0-10.9,4.9-10.9,10.9
	c0,3.1,1.3,5.7,3.3,7.8h-19.1l-2.9-38.5h-4.7v-16.6h-21.9l5-18.7h11.8c2.5,0,4-2.5,4-5v-0.3c0-2.5-1.5-4-4-4h-9.3l1.4-5.2h-87.8
	v-15.6h-6.2v-11.4h4.2v-6.2h3.1v-13.5h2.1v-12.5h-34.3v12.5h3.1v13.5h3.1v6.2h4.2v11.4h-7.3v15.6h-10.4v-37.9v-15.3v0.3h-0.6
	c-4.2-1-19.2-4.7-25.4-0.5v12c0,0,15.6-0.2,22.9,2.1v39.5h-41.6v-22.9h-6.2v22.9h-25.3l1.3,5.2h-9.4c-2.5,0-5,1.5-5,4v0.3
	c0,2.5,2.5,5,5,5h11.8l4.8,18.7h-20.6v90.4h-17.7v-15.6h4.2v-13.5h-4.2v-21.8h-45.7v21.8h-0.7l-21.1-8.5v-32h-21.8v23.5L227,341.4
	c-0.7-0.3-1.4,0-1.8,0.6l-8.3,13.8c-1.1-1.2-3-2-4.8-2c-3.4,0-6.5,2.8-6.5,6.2v3.1c0,0.4,0.6,0.5,0.6,1.6h-24.5v9.4h5.2v9.4
	l-5.6,0.3l-12.1,19.4h16.6v20.8h-33.3v50.9h-43.9L83,507.1H62.2v7.3h-54v31.9c-2.1,0.5-5.2,2.2-5.2,4.1v0.7c0,2.4,3.8,4.8,7.9,4.8
	h27.2c5.8,6.2,11.3,12.5,12.8,16.6h933.2c0,0,6.2-8.3,19.4-16.6h11.1c4.1,0,6.9-2.4,6.9-4.8v-0.7c0-2.4-2.8-3.8-6.9-3.8h-1.7
	l9.1-32.2h-35.9v-7.3h-9.4v7.3h-16.6v-7.8v-7.8h-43.6v0.3l-6-17.1l-14-11.2l-24.7-84.3h1.1v-10.4h-6.2v-37.4H851v37.4h-22
	c1.1-2.1,1.2-3.9,1.2-6v-0.5c0-5.3-3.8-9.1-9.1-9.1h-24.4c-5.3,0-10.1,3.8-10.1,9.1v0.5c0,2,1.2,3.9,2.2,6h-6.4v10.4h77.4l17.4,68.8
	L839.9,425h-0.3v-16.6h-129l-17.9-24.2c2.9-0.3,5.1-2.9,5.1-5.8c0-0.6-0.1-1.2-0.2-1.7L695.8,374.2z M274.2,408.4v-5.2h-48.8v5.2
	h-7.3v-24.9l-6.2,0v-9.4h6.2v-9.4h0.4c0.1-1-0.4-1.2-0.4-1.6V360c0-0.3,0.2-0.6,0.2-0.8l8.6-14.4l53.6,20.8v13.6h-6.2v13.5h20.1
	l6.4,15.6H274.2z M302.3,374.1l12.5,5.2h-12.5V374.1z M331.4,408.4h-14.1l-5-15.6h19.1V408.4z"/>
</svg>
